<?xml version="1.0" standalone="no"?>
<!DOCTYPE svg PUBLIC "-//W3C//DTD SVG 20010904//EN"
 "http://www.w3.org/TR/2001/REC-SVG-20010904/DTD/svg10.dtd">
<svg version="1.0" xmlns="http://www.w3.org/2000/svg"
 width="320.000000pt" height="320.000000pt" viewBox="0 0 320.000000 320.000000"
 preserveAspectRatio="xMidYMid meet">
<metadata>
Created by potrace 1.14, written by Peter Selinger 2001-2017
</metadata>
<g transform="translate(0.000000,320.000000) scale(0.100000,-0.100000)"
fill="#000000" stroke="none">
<path d="M1242 3168 c-26 -45 -63 -111 -105 -188 -19 -36 -51 -96 -72 -133
-20 -38 -35 -70 -33 -72 3 -4 108 -53 287 -136 47 -22 88 -36 92 -32 4 5 60
95 124 202 l116 194 -33 34 c-44 46 -150 109 -235 139 -94 33 -117 32 -141 -8z"/>
<path d="M1760 3033 c-24 -7 -290 -461 -276 -471 6 -5 61 -35 123 -67 61 -31
119 -65 128 -75 31 -35 34 -72 10 -166 -12 -49 -22 -90 -20 -92 2 -2 73 101
339 490 97 142 97 143 32 202 -111 101 -286 195 -336 179z"/>
<path d="M882 2712 c-15 -16 -36 -47 -48 -68 -32 -61 -253 -451 -301 -533 -24
-41 -49 -94 -55 -117 -13 -47 -5 -72 46 -151 13 -21 153 -240 310 -488 l287
-450 -6 -75 c-3 -41 -8 -93 -10 -115 -6 -57 -35 -314 -40 -355 -2 -19 -7 -64
-10 -100 -4 -36 -8 -76 -10 -90 -2 -14 -7 -58 -10 -98 l-7 -72 599 2 598 3 1
385 2 385 150 301 c227 455 224 448 237 639 l5 80 -197 -202 c-185 -190 -200
-202 -228 -197 -16 3 -47 16 -67 30 -21 13 -40 24 -43 24 -8 0 -147 91 -163
107 -13 12 -16 12 -22 1 -6 -11 -51 -192 -66 -263 -23 -114 -69 -283 -75 -279
-5 3 -9 13 -9 23 0 9 -4 21 -8 27 -5 5 -46 111 -92 236 -46 125 -93 237 -104
250 -12 13 -59 57 -106 98 -47 41 -90 79 -96 85 -24 23 -182 163 -235 210 -32
28 -58 56 -58 62 -1 7 12 36 27 65 16 29 36 67 45 85 l16 31 69 -28 c152 -62
284 -54 377 23 61 50 109 158 87 193 -10 16 -691 350 -730 359 -28 6 -36 2
-60 -23z m708 -1938 c85 -30 95 -30 127 6 14 17 30 30 35 30 5 0 15 -15 23
-34 15 -36 33 -47 62 -42 10 2 46 7 78 11 l60 7 -40 -27 c-96 -66 -126 -90
-140 -111 -12 -18 -57 -213 -101 -434 -9 -46 -14 -34 -15 41 -1 41 -2 101 -4
134 -1 33 -4 98 -5 145 -4 111 -19 144 -110 237 -41 42 -66 72 -55 68 11 -4
49 -18 85 -31z"/>
<path d="M2027 2477 c-75 -105 -180 -250 -232 -322 -52 -71 -94 -139 -94 -149
-1 -24 135 -159 210 -210 l54 -37 29 33 c16 18 52 58 80 89 62 67 194 214 219
243 10 12 49 55 86 96 102 112 121 136 121 153 0 57 -256 297 -317 297 -12 0
-64 -64 -156 -193z"/>
<path d="M2430 2169 c-41 -44 -84 -91 -95 -104 -11 -12 -66 -71 -122 -131
-218 -234 -203 -215 -186 -249 20 -38 113 -135 151 -158 25 -14 33 -15 44 -4
7 7 56 51 108 97 106 94 99 88 166 150 27 25 89 80 137 123 48 44 87 85 87 93
0 40 -97 178 -163 232 -21 17 -42 32 -46 32 -3 0 -40 -36 -81 -81z"/>
</g>
</svg>
