<?xml version="1.0" encoding="utf-8"?>
<!-- Generator: Adobe Illustrator 24.0.1, SVG Export Plug-In . SVG Version: 6.00 Build 0)  -->
<svg version="1.1" id="Layer_1" xmlns="http://www.w3.org/2000/svg" xmlns:xlink="http://www.w3.org/1999/xlink" x="0px" y="0px"
	 viewBox="0 0 2241 1476" style="enable-background:new 0 0 2241 1476;" xml:space="preserve">
<style type="text/css">
	.st0{fill:#343440;}
	.st1{fill:#ED7E94;}
	.st2{fill:#FF96A9;}
	.st3{fill:#322666;}
	.st4{fill:#3F327A;}
	.st5{fill:#F6DEF8;}
	.st6{fill:#FEF2FE;}
	.st7{fill:#E5649A;}
	.st8{fill:#DB4A87;}
	.st9{fill:#FFD4CD;}
	.st10{fill:#F5B7AD;}
	.st11{fill:#C8C2ED;}
	.st12{fill:#7860DC;}
	.st13{fill:#8B77E8;}
	.st14{fill:#FFCC46;}
	.st15{fill:#FFA42F;}
	.st16{fill:#E8E7FF;}
	.st17{fill:#EBC0BA;}
	.st18{fill:#F2F0FF;}
	.st19{fill:#DFDCF2;}
	.st20{fill:#6750CC;}
	.st21{fill-rule:evenodd;clip-rule:evenodd;fill:#E20A0A;}
</style>
<g>
	<path class="st0" d="M326.2,1470.5c0,0-241.6-77.7-233.9-259.3c7.7-181.6,233.9-198.7,233.9-198.7S153.5,805.2,393.2,734
		c0,0-112.2-92.3,17.9-152.2c0,0-170.9-256.2,114.8-412.9c285.7-156.8,492.3,55.6,492.3,55.6s58.7-90.8,140.3-24.7
		c0,0,20.4-217.5,265.3-198.3C1668.6,20.7,1639.6,246,1639.6,246s204.9-111.7,182,102.4c0,0,214.3,2.9,239.8,207.7
		c25.5,204.8-137.7,253.9-137.7,253.9s173.4,19.5,43.4,142c0,0,234.7,15.8,242.3,250.5c7.7,234.6-101.6,271.3-101.6,271.3
		L326.2,1470.5z"/>
	<path class="st1" d="M1223.6,473.4c0.1-1.1,0.2-2.2,0.3-3.3c2.1-20.5-54.8-15.2-54.8-15.2s15.3,3.6,21.5,23.1
		C1201.8,478,1212.8,476.3,1223.6,473.4z"/>
	<path class="st2" d="M1213.5,434.1c-8.5-12.3-20.1-20.7-27.8-32.9l-19.3,20.4l6.4,7.2c0,0-12.9,25-12.9,29.2
		c0,1.2,5.1,2.7,12.4,4.2c7.2-0.9,14.3-2.1,21.7-3C1205.6,456.8,1221.5,445.4,1213.5,434.1z"/>
	<path class="st1" d="M1269.7,446.6l-77.4-52.3l-6.5,6.9c7.6,12.3,19.2,20.6,27.8,32.9c8,11.4-8,22.8-19.3,25
		c-7.4,1-14.6,2.2-21.7,3c18.6,3.9,51.4,8,51.4,8L1269.7,446.6z"/>
	<path class="st3" d="M1229.8,438.2c0,0-66.8-47-67.5-117.6c0,0,99.1,75.1,123.2,138.1c0,0-22,19-61.6,11.4l9.7-19.7
		c0,0,19,0,10.6-12.1C1235.9,426.1,1229.8,438.2,1229.8,438.2z"/>
	<path class="st1" d="M983.7,262.2c0.6,3.4,1.2,6.7,1.8,10.1c4.6-0.4,9.1-1,13.6-1.9c0-5.5,0.3-10.1,1-13.4c0,0,19.9-13.1,21.6-40.4
		c1.7-27.3-9.1-109.8-9.1-109.8s-0.8-0.3-2-0.4C1010.9,159.2,1036.3,228.9,983.7,262.2z"/>
	<path class="st2" d="M983.7,262.2c52.6-33.3,27.2-103.1,27.1-155.8c-5.5-0.6-20.4,3-11.6,62.5c0,0-80.3,5.1-41.1,71.7
		c0,0-0.5,12.3-0.9,31.3c9.5,1.3,19,1.3,28.4,0.4C984.9,269,984.3,265.6,983.7,262.2z"/>
	<path class="st3" d="M978,444.3c-10.1-20.6-15.9-42.4-19.9-64.8c1.7,33.1,5,63.3,11.4,79c0,0,73.8,83.2,125.2,119.9
		C1051,537.7,1003.8,498.1,978,444.3z"/>
	<path class="st3" d="M999.6,283.9c-3.8,0.7-7.7,1.3-11.6,1.7c6.1,30.7,13.7,61,23.5,90.7C1006.9,348.2,1001.3,310.5,999.6,283.9z"
		/>
	<path class="st4" d="M1203.9,513.1l-70.5,8c0,0-97.3-74-114.9-105.8c0,0-3.1-16.5-6.8-38.9c-9.7-29.8-17.3-60.1-23.5-90.7
		c-10.5,1.1-21,0.9-31.2-1c-0.4,26.9-0.5,62.3,1.2,94.9c4.1,22.3,9.9,44.2,19.9,64.8c25.8,53.8,73.1,93.4,116.6,134.1
		c5,3.6,9.8,6.7,14.2,9.3c50.6,29,217.3-48.4,217.3-48.4L1203.9,513.1z"/>
	<path class="st5" d="M999.6,283.9c-0.3-4.9-0.5-9.5-0.5-13.5c-13.8,2.6-27.9,3.3-42,1.4c-0.1,4-0.2,8.2-0.2,12.7
		C970.8,287.2,985.3,286.6,999.6,283.9z"/>
	<path class="st6" d="M1236.2,520.1L1224,816h-76.8c0,0,8.8-273.9,23.4-299.1l33.3-3.8L1236.2,520.1z"/>
	<path class="st7" d="M1197.2,568.2L1149,756.1l35.7,41.8C1182.6,721.4,1190,644.8,1197.2,568.2z"/>
	<path class="st8" d="M1229.5,751l-31.1-187.2l-1.1,4.4c-7.2,76.6-14.7,153.1-12.5,229.7l3.1,3.7L1229.5,751z"/>
	<polygon class="st5" points="1173.9,526 1180.7,576.9 1200.6,551.4 1210.3,578.4 1239.7,531.5 1211.2,568.3 1200.6,549 
		1182.8,567.2 	"/>
	<path class="st4" d="M1326.2,539.3l83.4,256.2h-60.7l-49.3-165.4c0,0-25,163.1-19.7,211.6l-65.1,3.8c0,0-10.3-188.7,13.4-327.2
		L1326.2,539.3z"/>
	<path class="st3" d="M1297.3,599c-8.8,25.8-22.1,188.8-26.3,243.3l8.9-0.5c-5.3-48.6,19.7-211.6,19.7-211.6l49.3,165.4h18.7
		L1297.3,599z"/>
	<path class="st2" d="M1223.6,473.4c-10.8,2.9-21.8,4.6-32.9,4.7c2.9,9,3.8,21.4,0.5,38.4l9.5,32.6l23.6-31.5
		C1224.2,517.5,1222,493.3,1223.6,473.4z"/>
	<path class="st3" d="M1212.9,780.7c16.4-71.6,62.5-186.5,62.5-186.5l-30.3-16.4l12.9-12.4l-10.6-42.9l-19.1-4.1
		C1213.3,605.9,1211.9,713.4,1212.9,780.7z"/>
	<path class="st4" d="M1182.8,515.5c0,0-32.6,141.9-13.6,327h-62.2c0,0-23-177.2,1.9-254.9c16.3-50.8,24.5-66.6,24.5-66.6
		L1182.8,515.5z"/>
	<g>
		<polygon class="st9" points="1364.5,1467.9 1016,1467.9 950.5,784.9 1430,784.9 		"/>
	</g>
	<polygon class="st10" points="1416.2,784.9 1352,1454.8 1015.3,1454.8 1016.6,1467.9 1365.1,1467.9 1430.6,784.9 	"/>
	<path class="st3" d="M1165.1,791.1c-9-159.3,17.7-275.6,17.7-275.6l-20.6,2.3l-22.2,47.5l13,12.4l-37.8,19.7L1165.1,791.1z"/>
	<path class="st9" d="M1460.6,801.1H925.5c-8.8,0-15.9-7.1-15.9-15.9v-0.6c0-8.8,7.1-15.9,15.9-15.9h535.1c8.8,0,15.9,7.1,15.9,15.9
		v0.6C1476.5,794,1469.4,801.1,1460.6,801.1z"/>
	<path class="st10" d="M1460.3,790.6H925.8c-7.1,0-13.1-4.6-15.3-10.9c-0.6,1.6-0.9,3.4-0.9,5.2l0,0c0,8.9,7.2,16.2,16.2,16.2h534.5
		c8.9,0,16.2-7.2,16.2-16.2l0,0c0-1.8-0.3-3.6-0.9-5.2C1473.4,786,1467.4,790.6,1460.3,790.6z"/>
	<path class="st9" d="M1002.2,762c-1.4,0-2.8-0.6-3.7-1.8L958,706c-1-1.4-1.2-3.2-0.5-4.7l40.6-84.7c1.1-2.3,3.8-3.2,6.1-2.2
		c2.3,1.1,3.2,3.8,2.2,6.1L967,702.7l39,51.9c1.5,2,1.1,4.9-0.9,6.4C1004.2,761.7,1003.2,762,1002.2,762z"/>
	<path class="st9" d="M1049,768.7h-93.5v-10.1c0-7,5.7-12.7,12.7-12.7h68.2c7,0,12.7,5.7,12.7,12.7V768.7z"/>
	<rect x="955.5" y="762.2" class="st10" width="93.5" height="6.6"/>
	<path class="st10" d="M990.2,640.8L990.2,640.8c-9.2-4.8-12.7-16.2-7.8-25.4l21.9-41.5c4.8-9.2,16.2-12.7,25.4-7.8v0
		c9.2,4.8,12.7,16.2,7.8,25.4l-21.9,41.5C1010.8,642.1,999.4,645.6,990.2,640.8z"/>
	<path class="st9" d="M1358.3,762c1.4,0,2.8-0.6,3.7-1.8l40.6-54.2c1-1.4,1.2-3.2,0.5-4.7l-40.6-84.7c-1.1-2.3-3.8-3.2-6.1-2.2
		c-2.3,1.1-3.2,3.8-2.2,6.1l39.4,82.2l-39,51.9c-1.5,2-1.1,4.9,0.9,6.4C1356.4,761.7,1357.4,762,1358.3,762z"/>
	<path class="st9" d="M1311.6,768.7h93.5v-10.1c0-7-5.7-12.7-12.7-12.7h-68.2c-7,0-12.7,5.7-12.7,12.7V768.7z"/>
	<rect x="1311.6" y="762.2" class="st10" width="93.5" height="6.6"/>
	<path class="st10" d="M1370.3,640.8L1370.3,640.8c9.2-4.8,12.7-16.2,7.8-25.4l-21.9-41.5c-4.8-9.2-16.2-12.7-25.4-7.8v0
		c-9.2,4.8-12.7,16.2-7.8,25.4l21.9,41.5C1349.8,642.1,1361.2,645.6,1370.3,640.8z"/>
	<path class="st1" d="M1018.9,211c-11.4-2.3-23.9-6.8-28.4-18.2c16.1-3.5,31.3-0.1,46.2,4.6c-0.2-1.7-0.3-2.3-0.3-2.3
		s-59.5-14.8-54.6-2.7c4.9,12.1,14.4,17.8,25.4,18.6c0,0-25.9,7.5-30.7,22C986.7,220.8,1003.6,215.6,1018.9,211z"/>
	<path class="st2" d="M990.5,192.8c4.6,11.4,17.1,15.9,28.4,18.2c-15.4,4.5-32.2,9.8-42.5,22c-0.2,0.5-0.3,1-0.4,1.5
		c-3.4,15.6,24.1,22.6,24.1,22.6s34.7-4.4,36.2-30.5c1-17.5,0.7-25.7,0.3-29.2C1021.8,192.7,1006.6,189.3,990.5,192.8z"/>
	<path class="st2" d="M1407.6,769.2c5.6,11.2,14.5,24.6,29.1,20.1c10.8-4.2,21.6-12.7,27.4-23.6c-3.5-22-34.3-32.7-51.4-30.5
		c-22.1,2.8-58.2,76.5-45,89.3C1390,819.9,1397.4,788.5,1407.6,769.2z"/>
	<path class="st1" d="M1436.7,789.3c-14.5,4.5-23.5-8.9-29.1-20.1c-10.2,19.3-17.6,50.7-39.9,55.3c0.9,0.8,1.9,1.4,3.2,1.7
		c21.2,4.6,38.7-47,38.7-47s13.7,57.7,44.8,15.9c8.5-11.4,11-21.2,9.7-29.4C1458.3,776.7,1447.5,785.2,1436.7,789.3z"/>
	<path class="st3" d="M1240.5,637.5c-1.1,0-2.1-0.8-2.3-2c-0.2-1.2,0.7-2.4,2-2.6l45-5.9c1.2-0.2,2.4,0.7,2.6,2
		c0.2,1.2-0.7,2.4-2,2.6l-45,5.9C1240.6,637.5,1240.5,637.5,1240.5,637.5z"/>
	<path class="st4" d="M1263,600.2c-0.2,0-0.4,0-0.6-0.1l-13.4-7.6c-0.5-0.3-0.7-1-0.4-1.6c0.3-0.5,1-0.7,1.6-0.4l13.4,7.6
		c0.5,0.3,0.7,1,0.4,1.6C1263.7,600,1263.4,600.2,1263,600.2z"/>
	<polygon class="st8" points="1200.6,551.4 1191.7,562.8 1197.5,576.1 1205.1,563.8 	"/>
	<path class="st6" d="M964.1,278.7c0,1.5-1.2,2.7-2.7,2.7c-1.5,0-2.7-1.2-2.7-2.7c0-1.5,1.2-2.7,2.7-2.7
		C962.9,276.1,964.1,277.3,964.1,278.7z"/>
	<path class="st3" d="M966.8,295.8c0,2.2-1.8,4-4,4c-2.2,0-4-1.8-4-4c0-2.2,1.8-4,4-4C965,291.8,966.8,293.6,966.8,295.8z"/>
	<path class="st3" d="M966.8,316.9c0,2.2-1.8,4-4,4c-2.2,0-4-1.8-4-4s1.8-4,4-4C965,312.9,966.8,314.7,966.8,316.9z"/>
	
		<ellipse transform="matrix(0.9999 -1.612268e-02 1.612268e-02 0.9999 -4.8213 15.5629)" class="st3" cx="962.8" cy="306.8" rx="4" ry="4"/>
	<g>
		<path class="st11" d="M2236.7,1475.7H205.3c-2.1,0-3.8-1.8-3.8-3.9c0-2.2,1.7-3.9,3.8-3.9h2031.4c2.1,0,3.8,1.8,3.8,3.9
			C2240.5,1474,2238.8,1475.7,2236.7,1475.7z"/>
	</g>
	<g>
		<g>
			<g>
				<path class="st12" d="M410.5,439.1l-46,29.5c-2.2,1.4-5.1,1.5-7.4,0.3l-5.4-2.9c-4.9-2.7-5.2-9.6-0.4-12.6l40.2-25.2
					L410.5,439.1z"/>
				<path class="st13" d="M372.6,417.2l47.6,27.6c4.4,2.5,9.9,1,12.5-3.3l19.9-34.4c2.5-4.4,1-9.9-3.3-12.5L401.6,367L372.6,417.2z"
					/>
				
					<ellipse transform="matrix(0.5009 -0.8655 0.8655 0.5009 -142.7862 334.4966)" class="st13" cx="218.6" cy="291.1" rx="20.7" ry="17.6"/>
				<polygon class="st14" points="401.6,367 249.8,237.3 187.5,344.8 372.6,417.2 				"/>
				<polygon class="st15" points="378.7,405.6 194.2,333.4 187.5,344.8 372.6,417.2 401.6,367 401.2,366.8 				"/>
				<g>
					<g>
						<path class="st12" d="M398.3,413.7c-0.2,0-0.4-0.1-0.6-0.2c-0.5-0.3-0.7-1-0.4-1.6l12.2-20.1c0.3-0.5,1-0.7,1.6-0.4
							c0.5,0.3,0.7,1,0.4,1.6l-12.2,20.1C399,413.5,398.7,413.7,398.3,413.7z"/>
					</g>
					<g>
						<path class="st12" d="M406.9,419.4c-0.2,0-0.4-0.1-0.6-0.2c-0.5-0.3-0.7-1-0.4-1.6l12.2-20.1c0.3-0.5,1-0.7,1.6-0.4
							c0.5,0.3,0.7,1,0.4,1.6l-12.2,20.1C407.7,419.2,407.3,419.4,406.9,419.4z"/>
					</g>
					<g>
						<path class="st12" d="M416,424.9c-0.2,0-0.4-0.1-0.6-0.2c-0.5-0.3-0.7-1-0.4-1.6l12.2-20.1c0.3-0.5,1-0.7,1.6-0.4
							c0.5,0.3,0.7,1,0.4,1.6L417,424.3C416.8,424.7,416.4,424.9,416,424.9z"/>
					</g>
				</g>
			</g>
			<g>
				<g>
					<path class="st16" d="M226.8,224.4c-0.5,0-1-0.2-1.4-0.5l-95.1-74.2c-1-0.8-1.2-2.2-0.4-3.3c0.8-1,2.2-1.2,3.3-0.4l95.1,74.2
						c1,0.8,1.2,2.2,0.4,3.3C228.2,224.1,227.5,224.4,226.8,224.4z"/>
				</g>
				<g>
					<path class="st16" d="M178.9,264.6c-0.4,0-0.8-0.1-1.1-0.3L1.7,166.2c-1.1-0.6-1.5-2-0.9-3.2c0.6-1.1,2-1.5,3.2-0.9L180,260.2
						c1.1,0.6,1.5,2,0.9,3.2C180.5,264.2,179.7,264.6,178.9,264.6z"/>
				</g>
				<g>
					<path class="st16" d="M163.8,326.4c-0.3,0-0.6-0.1-0.9-0.2l-110-45.7c-1.2-0.5-1.7-1.8-1.3-3c0.5-1.2,1.8-1.7,3-1.3l110,45.7
						c1.2,0.5,1.7,1.8,1.3,3C165.6,325.8,164.7,326.4,163.8,326.4z"/>
				</g>
			</g>
		</g>
		<g>
			<path class="st1" d="M580.6,480.7l-19-9.8c0,0-0.9,10.1-4,22.3c7.4-0.4,14.7-2.6,21.6-5.6L580.6,480.7z"/>
			<path class="st2" d="M557.6,493.2c-2.5,10-6.5,21.3-12.5,29.5c-13.5,18.1,21.2,14,28.5-8.3l5.7-26.8
				C572.2,490.6,565,492.8,557.6,493.2z"/>
			<path class="st2" d="M572.7,453.7c-7.4-7.4-21.6-6.5-33.4-10.8c-4.4,8.6-8.8,20.5-6.2,30c1.6,6,9.4,8.9,19.1,9.8
				C568.3,478.3,585.6,466.6,572.7,453.7z"/>
			<path class="st1" d="M599.9,431.6c-19.1-7.8-53.8,0-53.8,0s-3.4,4.7-6.8,11.3c11.8,4.2,25.9,3.3,33.4,10.8
				c12.9,12.9-4.4,24.5-20.4,29.1c17.9,1.6,42.2-3.7,45.6-9.8C603,463.7,619,439.3,599.9,431.6z"/>
			<path class="st4" d="M584.4,447.1c0,0-103-3.1-88-49.7c15-46.6,91.1-27.9,121.1,19.1c0,0,40.4-24.3,58,26.4
				c0,0,127.8,2.6,93.1,103c-34.7,100.4-166.1,66.2-188.3,56.4c-22.2-9.8-6.7-88-6.7-88l10.9-51.2c0,0,11.4-0.5,10.3-10.3
				C593.7,443,584.4,447.1,584.4,447.1z"/>
			<path class="st1" d="M390.5,462c-17.9,11.9-31.4,22.8-38.4,39.5c4-6.8,7.4-11.8,9.2-13.5c7.6-6.9,18.6,3.4,35.9-17.1
				c16.4-19.5,14.7-25.8-12.3-40.5C394.3,441.1,397.4,458.6,390.5,462z"/>
			<path class="st2" d="M319.3,570.8c1-9.4,20.3-48.1,32.9-69.3c7-16.7,20.5-27.6,38.4-39.5c6.8-3.4,3.8-20.9-5.6-31.6
				c-1.4-0.7-2.8-1.5-4.2-2.3c-31-16.4-42.8,31.6-42.8,31.6s0,0-0.7,4.1c-0.7,4.1,7.6,7.1,7.6,7.1
				c-68.3,56.7-103.5,160.6-103.5,160.6c9.6-0.4,19.3-1.3,29.1-2.5c70.5-16.7,133.5-55.7,206.7-75.7c-2.5-13.6-9.7-25.5-16.5-38
				C385.8,533,319.3,570.8,319.3,570.8z"/>
			<path class="st1" d="M478.1,562.7c0-3.3-0.4-6.4-0.9-9.5c-73.2,20-136.2,59-206.7,75.7C359,617.9,450,576.4,478.1,562.7z"/>
			<path class="st2" d="M601,521.2c-16.2-6.6-30-10.9-39.7-12.5c-19.9-3.4-41.3-3-62.8-0.4C526.6,528.6,567.6,534,601,521.2z"/>
			<path class="st7" d="M601,521.2c-33.4,12.8-74.3,7.4-102.5-12.9c-12.7,1.6-25.4,4-37.8,6.9c6.8,12.5,14,24.4,16.5,38
				c2.8-0.8,5.7-1.5,8.6-2.2c18.8-4.3,36.6,0.4,54,5.8c26.1,3.3,51.9,11.9,76.1,23.2c4.1-15.5,10.6-30.8,21.7-42
				C624.5,531.4,612.2,525.7,601,521.2z"/>
			<path class="st8" d="M485.7,551c-2.9,0.7-5.7,1.5-8.6,2.2c0.6,3.1,0.9,6.2,0.9,9.5c5.7-2.8,8.8-4.4,8.8-4.4
				c17.4-3.6,35.2-3.8,52.9-1.6C522.3,551.4,504.5,546.7,485.7,551z"/>
			<path class="st2" d="M655.4,786.9c51.7-35.2,109.7-53.8,153.2-97.3c-18.9-20.4-32.8-44.9-48.7-67.7
				c-20.2-18.6-42.2-35.3-64.2-49.9c-19.9-13.2-39.7-24.6-58.1-34c-11.2,11.1-17.7,26.5-21.7,42c76.8,35.7,137.3,97.7,137.3,97.7
				c-4.8,29-86.2,82.1-103.5,80c-4.5-0.5-10.4-0.1-16.2,1.4c-16.5,4.4-32.4,18.3-13.5,46.9c7.4,11.2,14.7,18.3,21.5,22.4
				C639,812.3,641.8,796.5,655.4,786.9z"/>
			<path class="st1" d="M661.4,795c0,0,0,0,7.6-0.7s2.8-11.7,2.8-11.7c71.7-18.6,149.7-86.9,149.7-86.9
				c-15.9-26.8-37.4-51.5-61.6-73.7c15.9,22.8,29.7,47.3,48.7,67.7c-43.5,43.5-101.4,62.1-153.2,97.3c-13.6,9.5-16.5,25.3-13.9,41.5
				c16.8,10.2,30.5,2.4,34.4-7.9C681.5,806,661.4,795,661.4,795z"/>
			<path class="st9" d="M333.1,1466.9c0,0,2.9-2.1,7.9-6.1c18.9-19.8,36.2-41.2,52-63.6c-8.2-2-16-5.4-23.1-10.8
				C359.2,1418.6,347,1446.4,333.1,1466.9z"/>
			<path class="st2" d="M440.3,956.7c-0.7,10.4-2.4,34.1-5.4,66.2c-8.7,92.2-28.1,253.3-65,363.5c7.1,5.3,14.9,8.7,23.1,10.8
				c23.2-32.8,43.5-67.7,61.7-103.2c39.3-82.8,24.8-175.9,49.7-262.8c5.1-19.1,12.5-38.2,21.4-56.8
				C500.1,964.4,469.3,962.4,440.3,956.7z"/>
			<path class="st1" d="M525.7,974.4c-8.8,18.6-16.3,37.7-21.4,56.8c-24.8,86.9-10.3,180.1-49.7,262.8
				c-18.2,35.5-38.5,70.4-61.7,103.2c3.4,0.8,6.8,1.4,10.3,1.8c44.8-53.6,95.1-137.2,98.1-244.8c1.4-51.5,10.8-95.1,23.7-131.3
				c5.2-14.6,11-28.1,17.1-40.3C537,979.3,531.5,976.6,525.7,974.4z"/>
			<path class="st17" d="M341,1460.8c12-9.7,36.2-30.7,62.3-61.8c-3.5-0.4-6.9-1-10.3-1.8C377.1,1419.6,359.9,1441,341,1460.8z"/>
			<path class="st1" d="M626.5,877c0,0-134.7-73.7-185.8,73.9c0,0-0.1,2-0.4,5.8c35.5,7.1,73.9,8.4,101.9,25.9
				C578.7,909.3,626.5,877,626.5,877z"/>
			<path class="st1" d="M697.3,1080.6c-4.1-48.3-33.1-204.2-33.1-204.2c-7.5-8-14.8-14.3-21.8-19.2c17.3,77.9,20,162.5,39.9,238.2
				c85.5,76.1,147.5,173.3,180.2,280.9c1.9-1.1,3.8-2.4,5.6-3.7C822.5,1165.5,697.3,1080.6,697.3,1080.6z"/>
			<path class="st17" d="M868.2,1372.5c-1.8,1.3-3.7,2.5-5.6,3.7c8.2,26.9,14.5,54.5,18.9,82.6
				C878.7,1428,874.1,1399.2,868.2,1372.5z"/>
			<path class="st2" d="M682.3,1095.3c-19.8-75.7-22.6-160.3-39.9-238.2C580.5,812.9,542,876.4,542,876.4s3.6,162.8,98.8,253.9
				c59.8,57.2,139.7,175.3,190.9,255.3c10.9-0.5,21.5-3.8,30.9-9.3C829.9,1268.6,767.8,1171.4,682.3,1095.3z"/>
			<path class="st9" d="M881.5,1458.8c-4.4-28.1-10.8-55.7-18.9-82.6c-9.4,5.5-20,8.8-30.9,9.3c30.3,47.4,50.6,81.4,50.6,81.4
				C882,1464.2,881.7,1461.5,881.5,1458.8z"/>
			<path class="st7" d="M561.3,737.7c0,0-95.1-89.1-110.9,17.2c-15.9,106.3-9.7,195.9-9.7,195.9c124.6,4.8,184.3-33.6,208.9-57.1
				c-9.2-53.9-22.8-105.9-50.7-151.1C577.8,729.7,561.3,737.7,561.3,737.7z"/>
			<path class="st8" d="M664.2,876.4c-18-86.1-44-120.6-65.3-133.7c27.9,45.2,41.5,97.2,50.7,151.1
				C660.1,883.7,664.2,876.4,664.2,876.4z"/>
			<path class="st8" d="M506.4,637.9c-27.4,3.7-51.5-10.4-56.9-36.5c-4.5,17.7,20.1,40.4,20.1,40.4c-1.5,2.3-2.9,5.3-4.2,8.6
				C479.8,649.2,493.1,642.9,506.4,637.9z"/>
			<path class="st7" d="M591.1,598.4l24.1-42.8c-57.3-24.8-130.4-14.5-130.4-14.5l4.8,42.1c0,0-31.7-2.1-39.3,15.9
				c-0.3,0.8-0.6,1.6-0.8,2.4c5.3,26.1,29.5,40.2,56.9,36.5c-13.3,5-26.6,11.3-40.9,12.5C453.2,682.6,450.3,755,450.3,755
				c25.5,7,45.9,7.8,62,5.7c15.5-5.9,29.1-15.7,33.4-31.7c8.3-29,18.6-66.2-4.1-89c14.5,8.3,29,2.1,43.5,0
				c10.6-1.5,24.6-10.8,27.2-23C607.5,605.5,591.1,598.4,591.1,598.4z"/>
			<path class="st8" d="M585.1,640c-14.5,2.1-29,8.3-43.5,0c22.8,22.8,12.4,60,4.1,89c-4.4,16-17.9,25.8-33.4,31.7
				c34.8-4.6,49-23,49-23c-13.9-32.4,9.4-85.5,9.4-85.5c14.8,4.8,34.9-4.8,41.8-23.2c1.6-4.4,1.3-8.4-0.2-12
				C609.6,629.2,595.7,638.5,585.1,640z"/>
		</g>
	</g>
	<g>
		<path class="st2" d="M1852.5,476.5c1.6,14.7,5.9,32.1,16.6,43c21.3,21.8-23.9,26.5-29.6,0c-3.7-17.3-5-35.6-5.6-49.3
			C1839.9,472.9,1846.1,474.9,1852.5,476.5z"/>
		<path class="st1" d="M1833.2,453.1c-0.5-10.9,18.7-3.1,18.7-3.1s-1,11.9,0.6,26.5c-6.4-1.6-12.6-3.6-18.6-6.3
			C1833.5,462.9,1833.4,456.9,1833.2,453.1z"/>
		<path class="st1" d="M1794,411c0,0,3.4-22.3,57.9-24.9l6.4,9.6c-7.9,12.9-23.1,20.8-30.3,33.5c-7.3,13.2-0.1,24.4,11.3,31.2
			c-5.6-0.5-12-1.9-19.1-4.7C1785.4,441.7,1794,411,1794,411z"/>
		<path class="st2" d="M1828,429.2c7.3-12.7,22.4-20.6,30.3-33.5l14.9,22.1l-6.7,3.6c0,0,8.3,27,6.7,27.5
			c-1.2,0.4-12,13.3-33.8,11.5C1827.9,453.6,1820.7,442.4,1828,429.2z"/>
		<path class="st4" d="M1819.2,428.2c0,0,51.4-42,61.3-86.7c0,0-78.4,24.9-113.2,80.5c0,0,13.6,35.3,58.7,35.8l-9.9-18.7
			c0,0-8.8,0-8.8-9.9C1807.3,419.3,1819.2,428.2,1819.2,428.2z"/>
		<path class="st1" d="M1755.3,817.5c-10.4,10.4,6.2,14.5,14.5,16.6c9.9,1.5,18.1-0.3,25.5-4.1c-10.8,20.6-33.4,24.9-51.8,9.6
			c-24.9-20.8-4.8-36.7,10.4-40.8c0,0-13.8-6.9-8.3-12.5c5.5-5.5,5.5-5.5,5.5-5.5s-10.2-4.6-26.2-12.4c2.2-3.7,5-7.1,8.2-10.3
			c7.5,3.8,14.8,7.7,22.1,11.7C1774,780.1,1769.9,802.9,1755.3,817.5z"/>
		<path class="st2" d="M1740.8,751c5.4-3.2,11.3-5.9,17.3-6.6c25.3,22.6,43.9,44,43.6,57.8c-0.2,11.2-2.5,20.5-6.4,27.8
			c-7.4,3.7-15.6,5.6-25.5,4.1c-8.3-2.1-24.9-6.2-14.5-16.6c14.5-14.5,18.7-37.4,0-47.8c-7.3-4-14.7-7.9-22.1-11.7
			C1735.6,755.6,1738.1,753.3,1740.8,751z"/>
		<path class="st18" d="M1743.7,732.1c5,4.1,9.8,8.3,14.3,12.4c-5.9,0.7-11.9,3.3-17.3,6.6c-2.7,2.2-5.2,4.5-7.6,7
			c-4.6-2.4-9.2-4.7-13.9-7C1725.7,742.3,1733.5,735.3,1743.7,732.1z"/>
		<path class="st19" d="M1725,768.4c-3.9-1.9-8.2-4-12.7-6.3c2.2-3.9,4.5-7.6,7-11.1c4.6,2.3,9.3,4.7,13.9,7
			C1730.1,761.2,1727.2,764.7,1725,768.4z"/>
		<path class="st12" d="M1936,560c57.3,11.1,109.6,37,155.5,73.3c-42.6-23.8-145.5-75.1-240.8-76
			C1878.6,553.6,1906.8,554.5,1936,560z"/>
		<path class="st13" d="M1568.5,655.5c46.5-71.9,122.7-116,203.9-144.1c23.3-6.1,48.1-10.2,74.3-11.6c0,0,212.5,9,337.1,130.8
			c0,0-40,79.9-102,128.8c-4.8-12.5-12.6-24.3-23.2-32.1c23.8-28.6,52.7-74.6,53.2-82.2c0,0-7.4-4.7-20.3-11.9
			c-45.9-36.3-98.3-62.2-155.5-73.3c-29.2-5.6-57.4-6.4-85.3-2.7c-25.6-0.2-50.7,3.2-73.9,11.7c-99.7,36.7-155.7,74.1-155.7,74.1
			s69.8,44.8,122.7,89c-10.2,3.2-18,10.2-24.4,18.9C1665.1,723.7,1609.2,697.9,1568.5,655.5z"/>
		<path class="st18" d="M2050.1,737c2.7-2.9,5.6-6.1,8.5-9.7c10.6,7.8,18.3,19.6,23.2,32.1c-4.2,3.3-8.4,6.4-12.8,9.4
			C2065.9,756.3,2059.4,745.1,2050.1,737z"/>
		<path class="st2" d="M2025.3,792.6c-8.2-13.2-4.7-27.7,0.2-41.4c2.3-0.5,4.6-0.8,6.7-0.9c4-0.2,10.4-5.3,17.9-13.3
			c9.3,8.1,15.7,19.3,18.9,31.8c-5.2,3.6-10.6,6.9-16,9.9c0,0,9,6.9,4.2,10.4c-4.8,3.5-4.8,3.5-4.8,3.5s27.7,4.3,17.3,19.5
			c-0.6,0.8-1.2,1.6-1.8,2.5C2050.1,815.9,2033,806.5,2025.3,792.6z"/>
		<path class="st1" d="M2025.5,751.2c-4.9,13.7-8.4,28.2-0.2,41.4c7.8,14,24.8,23.3,42.5,21.9c-11.4,14.3-36,26.5-57-10.8
			C1991.3,769.1,2009.1,754.7,2025.5,751.2z"/>
		<path class="st12" d="M1865.4,917.1c-23.4-2.5-48.9-3.5-73.2-8.2c6.2-22.4,12.9-42.7,20.3-60.1c72.3-171.2,113.9-16.1,113.9-16.1
			s-7.1,46.2-20.7,114.7C1891.6,933.2,1877.4,918.6,1865.4,917.1z"/>
		<path class="st13" d="M1792.2,909c24.3,4.7,49.8,5.7,73.2,8.2c12,1.5,26.2,16,40.2,30.3c-30,151.2-91.5,410.9-177.2,520
			C1728.3,1467.4,1737.8,1106.5,1792.2,909z"/>
		<path class="st12" d="M1933.2,764.2c32.8,8.5,69.3,41.8,69.3,41.8s11.9,5.9,26.2,67.8c-21.1,17.3-43,32.7-71.8,37.1
			C1953,860.9,1942.7,812.5,1933.2,764.2z"/>
		<path class="st13" d="M1904.1,765.6c8.4-4.3,18.5-4.1,29-1.3c9.6,48.2,19.9,96.6,23.6,146.7c28.9-4.3,50.7-19.7,71.8-37.1
			c17.9,77.5,39.6,242.6,46.5,593.5c0,0-129-215-147.4-535c0,0-20.7,4.6-47.2-39.5C1853.9,848.8,1869.4,783.2,1904.1,765.6z"/>
		<path class="st18" d="M1898.7,505.5c0,0,73.3,266.3,79,321.3c0,0-47.3,37.2-124.1,22c0,0-5-290-41.8-345.5
			c3.1-0.6,26.3-3.8,34.6-3.5C1855.7,500.1,1887.4,502.8,1898.7,505.5z"/>
		<path class="st7" d="M1852.7,520.3l-0.2-7.1l89.1,201.1l-21.6,75.5c-1.3-46.8-13.7-93.4-27.6-138.5
			C1878.3,607.5,1861.3,565,1852.7,520.3z"/>
		<path class="st8" d="M1892.4,651.4c13.9,45.1,26.3,91.7,27.6,138.5l-0.6,2l-61.1-68.5l-5.7-203
			C1861.3,565,1878.3,607.5,1892.4,651.4z"/>
		<path class="st13" d="M1949.8,515c0,0,71.3,265.1,81.7,348.1c0,0-39.5,20.8-67.8,29.8c0,0-46.3-314.1-93.3-391.3
			c12,1,25.2,3.2,40.1,5.7C1925.1,509.7,1937.8,511.9,1949.8,515z"/>
		<path class="st13" d="M1823.5,501.7c0,0,67.8,187.1,73,386.4c0,0-78.9,29.1-123.5-8.3c0,0,49.8-75.8,27-187.9
			c-22.8-112.1-51.2-173.5-51.2-173.5C1765,511.7,1817.3,501.5,1823.5,501.7z"/>
		<polygon class="st4" points="1741,1449.9 1630.8,1467.4 1753.3,1467.4 		"/>
		<path class="st12" d="M2074.9,1459.9l-4.3-0.2c-22.8-41.1-126.6-242.6-143-527.3C1927.7,932.4,2020.8,1372.4,2074.9,1459.9
			C2074.9,1459.9,2074.9,1459.9,2074.9,1459.9z"/>
		<polygon class="st4" points="2065.4,1449.9 2182,1467.4 2054.3,1467.4 		"/>
		<polygon class="st7" points="1849.2,502.7 1861.6,510.3 1854.3,523.8 1841.2,511.6 		"/>
		<g>
			<path class="st12" d="M2105.6,728.1c0,1.5,1.2,2.8,2.8,2.8c1.5,0,2.8-1.2,2.8-2.8c0-1.5-1.2-2.8-2.8-2.8
				C2106.8,725.3,2105.6,726.6,2105.6,728.1z"/>
			<path class="st12" d="M2090,742.8c0,1.5,1.2,2.8,2.8,2.8c1.5,0,2.8-1.2,2.8-2.8c0-1.5-1.2-2.8-2.8-2.8
				C2091.3,740,2090,741.3,2090,742.8z"/>
			<path class="st12" d="M2097.6,735.4c0,1.5,1.2,2.8,2.8,2.8c1.5,0,2.8-1.2,2.8-2.8c0-1.5-1.2-2.8-2.8-2.8
				C2098.9,732.6,2097.6,733.8,2097.6,735.4z"/>
		</g>
		<g>
			<path class="st20" d="M1700.5,744.4c-1.4,0.6-2.1,2.2-1.5,3.6c0.6,1.4,2.2,2.1,3.6,1.5c1.4-0.6,2.1-2.2,1.5-3.6
				C1703.5,744.4,1701.9,743.8,1700.5,744.4z"/>
			<path class="st20" d="M1681,735.6c-1.4,0.6-2.1,2.2-1.5,3.6c0.6,1.4,2.2,2.1,3.6,1.5c1.4-0.6,2.1-2.2,1.5-3.6
				C1684,735.7,1682.4,735,1681,735.6z"/>
			<path class="st20" d="M1690.7,739.8c-1.4,0.6-2.1,2.2-1.5,3.6c0.6,1.4,2.2,2.1,3.6,1.5c1.4-0.6,2.1-2.2,1.5-3.6
				C1693.8,739.9,1692.2,739.2,1690.7,739.8z"/>
		</g>
		<path class="st19" d="M2071.2,759.5c0,1.1,0.9,2,2,2s2-0.9,2-2c0-1.1-0.9-2-2-2S2071.2,758.4,2071.2,759.5z"/>
		<path class="st19" d="M1919.9,814.6c0,1.1,0.9,2,2,2c1.1,0,2-0.9,2-2c0-1.1-0.9-2-2-2C1920.8,812.6,1919.9,813.5,1919.9,814.6z"/>
		<path class="st18" d="M1719.6,760.1c0,1.1,0.9,2,2,2c1.1,0,2-0.9,2-2c0-1.1-0.9-2-2-2C1720.5,758.1,1719.6,759,1719.6,760.1z"/>
		<path class="st12" d="M1953.3,771.6c0,3.3,2.7,6,6,6c3.3,0,6-2.7,6-6c0-3.3-2.7-6-6-6C1956,765.6,1953.3,768.3,1953.3,771.6z"/>
		<path class="st12" d="M1891,504.2l38.7,48.9l-13.8,11.8l43.4,26.1l-20.4,157.2l0,0c-17.8-93.3-43.1-204.6-68.5-246.4
			C1876.8,502.1,1883.7,503.1,1891,504.2z"/>
		<path class="st12" d="M1883.9,750.2l-90.9-155.6l26.6-27.7l-18-5l8.7-58.4c6.6-1.2,11.5-1.8,13.1-1.8
			C1823.5,501.7,1862.9,610.3,1883.9,750.2z"/>
		<g>
			<path class="st13" d="M1811.8,598.4c0.2,0,0.5-0.1,0.7-0.2l10.9-9c0.4-0.4,0.5-1,0.1-1.5c-0.4-0.4-1-0.5-1.5-0.1l-10.9,9
				c-0.4,0.4-0.5,1-0.1,1.5C1811.2,598.3,1811.5,598.4,1811.8,598.4z"/>
		</g>
		<g>
			<path class="st12" d="M1866.1,780.8c0,0,0.1,0,0.1,0l15.2-2.1c0.6-0.1,1-0.6,0.9-1.2c-0.1-0.6-0.6-1-1.2-0.9l-15.2,2.1
				c-0.6,0.1-1,0.6-0.9,1.2C1865.1,780.4,1865.6,780.8,1866.1,780.8z"/>
		</g>
		<g>
			<path class="st12" d="M1987.9,788.6c0.3,0,0.6-0.1,1-0.2l22.3-11.6c1-0.5,1.4-1.8,0.9-2.8c-0.5-1-1.8-1.4-2.8-0.9l-22.3,11.6
				c-1,0.5-1.4,1.8-0.9,2.8C1986.4,788.2,1987.1,788.6,1987.9,788.6z"/>
		</g>
		<g>
			<path class="st12" d="M1855.5,805.5c1,0,1.9-0.7,2-1.7c0.2-1.1-0.5-2.2-1.7-2.4l-46.2-8.3c-1.1-0.2-2.2,0.5-2.4,1.7
				c-0.2,1.1,0.5,2.2,1.7,2.4l46.2,8.3C1855.3,805.5,1855.4,805.5,1855.5,805.5z"/>
		</g>
		<path class="st12" d="M1772.4,511.4c-81.2,28.1-157.4,72.2-203.9,144.1c40.7,42.4,96.7,68.2,150.9,95.4c-2.6,3.5-4.9,7.2-7,11.1
			c-51.2-25.6-137.7-72.8-163.9-110C1548.4,652.1,1633.6,547.6,1772.4,511.4z"/>
	</g>
	<g>
		
			<ellipse transform="matrix(0.7071 -0.7071 0.7071 0.7071 -454.0389 1169.9557)" class="st10" cx="1185.2" cy="1133.1" rx="117.1" ry="117.1"/>
		<g>
			<polygon class="st21" points="1189.4,1177.8 1230.3,1184 1222.6,1169.3 1260.1,1134.4 1246.8,1130.6 1254.2,1111.4 
				1232.3,1115.8 1229.7,1103.1 1205.2,1122 1218.2,1081 1202.2,1088.9 1185.2,1063.1 1168.3,1088.9 1152.3,1081 1165.3,1122 
				1140.8,1103.1 1138.2,1115.8 1116.3,1111.4 1123.7,1130.6 1110.4,1134.4 1147.9,1169.3 1140.2,1184 1181.1,1177.8 1181.1,1203 
				1189.4,1203 			"/>
			<polygon class="st21" points="1185.2,1063.1 1168.3,1088.9 1152.3,1081 1165.3,1122 1140.8,1103.1 1138.2,1115.8 1116.3,1111.4 
				1123.7,1130.6 1110.4,1134.4 1147.9,1169.3 1140.2,1184 1181.1,1177.8 1181.1,1203 1185.2,1203 			"/>
		</g>
	</g>
</g>
</svg>
